<svg width="32" height="32" viewBox="0 0 32 32" fill="none" xmlns="http://www.w3.org/2000/svg">
  <path d="M16 4C10.4772 4 6 8.47715 6 14C6 19.5228 10.4772 24 16 24C21.5228 24 26 19.5228 26 14C26 8.47715 21.5228 4 16 4ZM16 22C11.5817 22 8 18.4183 8 14C8 9.58172 11.5817 6 16 6C20.4183 6 24 9.58172 24 14C24 18.4183 20.4183 22 16 22Z" fill="#FF4444"/>
  <path d="M16 8C12.6863 8 10 10.6863 10 14C10 17.3137 12.6863 20 16 20C19.3137 20 22 17.3137 22 14C22 10.6863 19.3137 8 16 8ZM16 18C13.7909 18 12 16.2091 12 14C12 11.7909 13.7909 10 16 10C18.2091 10 20 11.7909 20 14C20 16.2091 18.2091 18 16 18Z" fill="#FF4444"/>
  <path d="M16 12C14.8954 12 14 12.8954 14 14C14 15.1046 14.8954 16 16 16C17.1046 16 18 15.1046 18 14C18 12.8954 17.1046 12 16 12Z" fill="#FF4444"/>
</svg>